<svg display="none" xmlns="http://www.w3.org/2000/svg">
      <symbol id="header-logo" viewBox="0 0 45 45">
        <g>
          <path d="M0 0H4.58052V40.299H18.0529V44.8658H0V0Z"/>
          <path d="M13.4724 36.1347H18.0476V27.1339H22.4881V22.5711H18.0476V4.70103H26.9395V45H42.3079C42.3079 45 44.9991 44.8658 44.9991 41.7792V2.82089C44.9991 2.82089 45.1337 0.136887 42.0388 0.136887H35.9713V4.56549H40.4119V40.4372H31.5254V2.82089C31.5254 2.82089 31.3908 0.136887 29.1032 0.136887H15.6281C15.6281 0.136887 13.4751 0.539487 13.4751 2.82089L13.4724 36.1347Z"/>
        </g>
      </symbol>
      <symbol id="header-phone" viewBox="0 0 23 23">
        <g>
          <path d="M16.8732 22C12.4889 22 8.54617 20.1881 5.67236 17.3134C2.79854 14.4387 1 10.5076 1 6.12195C1 5.2 1.40963 4.37409 2.04968 3.81067L4.55227 1.42896C4.82749 1.16006 5.19872 1 5.60835 1C6.13959 1 6.60683 1.2689 6.88205 1.67866L9.42304 5.23201C9.60226 5.48171 9.70466 5.78902 9.70466 6.12195C9.70466 6.57652 9.49985 6.99268 9.18622 7.27439L7.15087 9.06707C6.86925 9.34878 6.63243 9.74573 6.63243 10.2195C6.62603 11.3463 7.46449 12.8957 8.78299 14.2146C10.1015 15.5335 11.6504 16.3723 12.7769 16.3659C13.2441 16.3659 13.6474 16.129 13.929 15.8473L15.7275 13.8177C16.0091 13.4976 16.4188 13.2991 16.8796 13.2991C17.2124 13.2991 17.5133 13.4015 17.7693 13.5808L21.3215 16.1226C21.7312 16.3979 22 16.8652 22 17.3966C22 17.8064 21.84 18.1777 21.5776 18.453L19.1966 20.9564C18.6205 21.5902 17.7949 22 16.8732 22Z" stroke-miterlimit="10"/>
        </g>
      </symbol>
      <symbol id="item-arrow" viewBox="0 0 12 13">
        <g>
          <path d="M11.299 12.1066C11.5751 12.1066 11.799 11.8827 11.799 11.6066L11.799 7.1066C11.799 6.83046 11.5751 6.6066 11.299 6.6066C11.0228 6.6066 10.799 6.83046 10.799 7.1066V11.1066L6.79898 11.1066C6.52284 11.1066 6.29899 11.3305 6.29898 11.6066C6.29898 11.8827 6.52284 12.1066 6.79898 12.1066L11.299 12.1066ZM0.338829 1.35355L10.9454 11.9602L11.6525 11.253L1.04594 0.646447L0.338829 1.35355Z"/>
        </g>
      </symbol>
      <symbol id="email" viewBox="0 0 21 16">
        <g>
          <path d="M17.3789 0C18.2077 0 19.0026 0.320798 19.5886 0.891822C20.1747 1.46285 20.5039 2.23732 20.5039 3.04487V12.7885C20.5039 13.596 20.1747 14.3705 19.5886 14.9415C19.0026 15.5125 18.2077 15.8333 17.3789 15.8333H3.62891C2.8001 15.8333 2.00525 15.5125 1.4192 14.9415C0.833146 14.3705 0.503906 13.596 0.503906 12.7885V3.04487C0.503906 2.23732 0.833146 1.46285 1.4192 0.891822C2.00525 0.320798 2.8001 0 3.62891 0H17.3789ZM19.2539 4.82429L10.8214 9.65955C10.7417 9.70516 10.6526 9.73296 10.5605 9.74097C10.4684 9.74897 10.3757 9.73697 10.2889 9.70583L10.1864 9.65955L1.75391 4.82673V12.7885C1.75391 13.273 1.95145 13.7377 2.30308 14.0803C2.65471 14.4229 3.13163 14.6154 3.62891 14.6154H17.3789C17.8762 14.6154 18.3531 14.4229 18.7047 14.0803C19.0564 13.7377 19.2539 13.273 19.2539 12.7885V4.82429ZM17.3789 1.21795H3.62891C3.13163 1.21795 2.65471 1.41043 2.30308 1.75304C1.95145 2.09566 1.75391 2.56034 1.75391 3.04487V3.41269L10.5039 8.4282L19.2539 3.41026V3.04487C19.2539 2.56034 19.0564 2.09566 18.7047 1.75304C18.3531 1.41043 17.8762 1.21795 17.3789 1.21795Z"/>
        </g>
      </symbol>
      <symbol id="clock" viewBox="0 0 26 25">
        <g>
          <path d="M12.9206 23.3333C7.16077 23.3333 2.50391 18.6765 2.50391 12.9167C2.50391 7.15686 7.16077 2.5 12.9206 2.5C18.6804 2.5 23.3372 7.15686 23.3372 12.9167C23.3372 18.6765 18.6804 23.3333 12.9206 23.3333ZM12.9206 3.72549C7.83479 3.72549 3.7294 7.83088 3.7294 12.9167C3.7294 18.0025 7.83479 22.1078 12.9206 22.1078C18.0064 22.1078 22.1117 18.0025 22.1117 12.9167C22.1117 7.83088 18.0064 3.72549 12.9206 3.72549Z"/>
          <path d="M15.1836 17.9957L11.4336 14.2457V7.45996H12.6241V13.7695L16.0169 17.1623L15.1836 17.9957Z"/>
        </g>
      </symbol>
      <symbol id="location" viewBox="0 0 26 26">
        <g>
          <path d="M21.8815 9.71969C21.8815 11.9975 20.6436 15.0746 18.9087 17.9459C17.3024 20.6041 15.346 22.9617 13.7521 24.2243C12.1353 22.9636 10.1789 20.6066 8.57895 17.9469C6.85268 15.0772 5.629 11.9991 5.629 9.71969C5.629 5.14817 9.27623 1.45859 13.7553 1.45859C18.2343 1.45859 21.8815 5.14817 21.8815 9.71969Z" stroke="#393246" stroke-width="1.2502"/>
<circle cx="13.7545" cy="9.58506" r="3.12549" stroke="#393246" stroke-width="1.2502"/>
        </g>
      </symbol>
      <symbol id="download" viewBox="0 0 21 21">
        <g>
          <path d="M16.7124 21C17.5583 21 18.3096 20.6505 18.9661 19.9516C19.6606 19.2124 20.0078 18.3152 20.0078 17.2601C20.0078 16.205 19.6606 15.3078 18.9661 14.5686L8.07599 2.27016C7.52044 1.66532 6.87966 1.27554 6.15365 1.10081C5.42764 0.926078 4.69216 0.973121 3.94721 1.24194C3.20226 1.51076 2.51413 1.97446 1.88281 2.63307C1.68079 2.86156 1.49455 3.11358 1.3241 3.38912C1.15364 3.66465 1.01476 3.95363 0.907433 4.25605C0.80011 4.55847 0.718039 4.87769 0.661221 5.21371C0.604403 5.54973 0.575994 5.88576 0.575994 6.22178C0.601246 7.64651 1.05579 8.83602 1.93963 9.79033L10.1783 19.1048C10.2919 19.2393 10.4308 19.3098 10.5949 19.3165C10.7591 19.3233 10.9011 19.2661 11.0211 19.1452C11.141 19.0242 11.2042 18.873 11.2105 18.6915C11.2168 18.5101 11.1631 18.3522 11.0495 18.2177L2.81084 8.90323C2.14165 8.17742 1.80074 7.27688 1.78811 6.20162C1.77549 5.12635 2.09746 4.24597 2.75402 3.56049C3.15806 3.11694 3.6063 2.78092 4.09872 2.55242C4.59115 2.32393 5.12145 2.25 5.68963 2.33065C6.25781 2.41129 6.76286 2.68683 7.20478 3.15726L18.0949 15.4556C18.5621 15.953 18.7957 16.5511 18.7957 17.25C18.7957 17.9489 18.5621 18.547 18.0949 19.0444C17.8803 19.2729 17.6467 19.4442 17.3942 19.5585C17.1417 19.6727 16.8765 19.7164 16.5987 19.6895C16.0432 19.6626 15.5255 19.3871 15.0457 18.8629L6.39039 9.06452C6.32726 8.99731 6.26728 8.92675 6.21046 8.85283C6.15365 8.7789 6.09367 8.69153 6.03054 8.59073C5.96741 8.48992 5.9169 8.3824 5.87902 8.26815C5.84115 8.1539 5.81589 8.03965 5.80327 7.92541C5.79064 7.81116 5.80958 7.69355 5.86008 7.57258C5.91059 7.45162 5.98635 7.33737 6.08736 7.22984C6.32726 6.96102 6.56084 6.84006 6.78812 6.86694C7.02801 6.89382 7.29948 7.06183 7.60251 7.37097L14.1177 14.75C14.1934 14.8306 14.2818 14.8878 14.3828 14.9214C14.4838 14.955 14.588 14.9583 14.6953 14.9315C14.8026 14.9046 14.8942 14.8508 14.9699 14.7702C15.0962 14.6492 15.1593 14.5013 15.1593 14.3266C15.1593 14.1519 15.1025 13.9973 14.9889 13.8629L8.47372 6.46371C7.95604 5.92608 7.43205 5.63038 6.90175 5.57662C6.29569 5.52285 5.74014 5.76479 5.23508 6.30242C4.75529 6.79973 4.5438 7.38441 4.60062 8.05645C4.65743 8.7285 4.96362 9.36022 5.51918 9.95162L14.1745 19.7702C14.8815 20.5229 15.6707 20.9261 16.5419 20.9798C16.5672 20.9798 16.5956 20.9832 16.6271 20.9899C16.6587 20.9966 16.6871 21 16.7124 21Z"/>
        </g>
      </symbol>
      <symbol id="arrow_bottom" viewBox="0 0 8 41">
        <g>
          <path d="M3.64645 40.3536C3.84171 40.5488 4.15829 40.5488 4.35356 40.3536L7.53554 37.1716C7.7308 36.9763 7.7308 36.6597 7.53554 36.4645C7.34027 36.2692 7.02369 36.2692 6.82843 36.4645L4 39.2929L1.17157 36.4645C0.976312 36.2692 0.65973 36.2692 0.464468 36.4645C0.269206 36.6597 0.269206 36.9763 0.464468 37.1716L3.64645 40.3536ZM3.5 2.18557e-08L3.5 40L4.5 40L4.5 -2.18557e-08L3.5 2.18557e-08Z"/>
        </g>
      </symbol>
      <symbol id="input_svg" viewBox="0 0 16 16">
          <g>
            <path d="M15.5 0.5L0.5 15.5" stroke-linecap="round" stroke-linejoin="round"/>
            <path d="M3 0.5H15.5V13" stroke-linecap="round" stroke-linejoin="round"/>
          </g>
      </symbol>
      <symbol id="arrow_top" viewBox="0 0 16 16">
        <g>
          <path d="M15.5 0.5L0.5 15.5" stroke="black" stroke-linecap="round" stroke-linejoin="round"/>
          <path d="M3 0.5H15.5V13" stroke="black" stroke-linecap="round" stroke-linejoin="round"/>
        </g>
      </symbol>
      <symbol id="icon-thanks" viewBox="0 0 60 60">
        <g>
          <path d="M27.5002 58C12.3377 58 0 45.6628 0 30.5002C0 15.3377 12.3377 3 27.5002 3C32.7728 3 37.9025 4.50238 42.335 7.34739C43.2052 7.9077 43.4602 9.06767 42.8999 9.94017C42.3378 10.8127 41.1801 11.0649 40.3076 10.5051C36.4825 8.04732 32.0527 6.75001 27.5002 6.75001C14.4049 6.75001 3.75001 17.4049 3.75001 30.5002C3.75001 43.5951 14.4049 54.25 27.5002 54.25C40.5951 54.25 51.25 43.5951 51.25 30.5002C51.25 29.7174 51.2124 28.9425 51.1401 28.1803C51.0403 27.1476 51.7952 26.2325 52.8252 26.1327C53.8602 26.0375 54.7725 26.7878 54.8727 27.8177C54.9574 28.7003 55 29.5952 55 30.5002C55 45.6628 42.6628 58 27.5002 58Z"/>
          <path d="M26.9694 40C26.4953 40 26.0207 39.8188 25.6602 39.4546L14.5428 28.2943C13.8191 27.5673 13.8191 26.3893 14.5428 25.6628C15.2666 24.9362 16.4401 24.9362 17.1639 25.6628L26.9721 35.5088L52.8357 9.54494C53.5599 8.81835 54.7334 8.81835 55.4572 9.54494C56.1809 10.2715 56.1809 11.4495 55.4572 12.1761L28.2812 39.4569C27.918 39.8188 27.4439 40 26.9694 40Z"/>
        </g>
      </symbol>
<symbol id="arrow" viewBox="0 0 60 60">
        <g>
          <circle cx="15" cy="15" r="14.5" stroke="#D5D5D5"/>
<path d="M14.9511 23.1568C15.1464 23.352 15.463 23.352 15.6582 23.1568L18.8402 19.9748C19.0355 19.7795 19.0355 19.463 18.8402 19.2677C18.645 19.0724 18.3284 19.0724 18.1331 19.2677L15.3047 22.0961L12.4763 19.2677C12.281 19.0724 11.9644 19.0724 11.7692 19.2677C11.5739 19.463 11.5739 19.7795 11.7692 19.9748L14.9511 23.1568ZM14.8047 7.80322L14.8047 22.8032L15.8047 22.8032L15.8047 7.80322L14.8047 7.80322Z" fill="#3D3D3D"/>
        </g>
      </symbol>
    </svg>